<?xml version="1.0" encoding="UTF-8" standalone="no"?>
<!-- Created with Inkscape (http://www.inkscape.org/) -->

<svg
   width="100mm"
   height="297mm"
   viewBox="0 0 100 297"
   version="1.1"
   id="svg1"
   sodipodi:docname="super.svg"
   inkscape:version="1.3.2 (091e20e, 2023-11-25, custom)"
   xmlns:inkscape="http://www.inkscape.org/namespaces/inkscape"
   xmlns:sodipodi="http://sodipodi.sourceforge.net/DTD/sodipodi-0.dtd"
   xmlns="http://www.w3.org/2000/svg"
   xmlns:svg="http://www.w3.org/2000/svg">
  <sodipodi:namedview
     id="namedview1"
     pagecolor="#ffffff"
     bordercolor="#666666"
     borderopacity="1.0"
     inkscape:showpageshadow="2"
     inkscape:pageopacity="0.0"
     inkscape:pagecheckerboard="0"
     inkscape:deskcolor="#d1d1d1"
     inkscape:document-units="mm"
     showgrid="true"
     inkscape:zoom="4"
     inkscape:cx="194.25"
     inkscape:cy="972.875"
     inkscape:window-width="2560"
     inkscape:window-height="1369"
     inkscape:window-x="-8"
     inkscape:window-y="-8"
     inkscape:window-maximized="1"
     inkscape:current-layer="layer1">
    <inkscape:grid
       type="axonomgrid"
       id="grid1"
       units="cm"
       originx="5"
       originy="-9.9999999"
       spacingx="0"
       spacingy="8.9999999"
       empcolor="#3f3fff"
       empopacity="0.25098039"
       color="#3f3fff"
       opacity="0.1254902"
       empspacing="5"
       dotted="false"
       gridanglex="26.57"
       gridanglez="26.57"
       visible="true" />
  </sodipodi:namedview>
  <defs
     id="defs1">
    <inkscape:path-effect
       effect="spiro"
       id="path-effect3"
       is_visible="true"
       lpeversion="1" />
  </defs>
  <g
     inkscape:label="Tile"
     inkscape:groupmode="layer"
     id="layer1">
    <path
       style="fill:#d6d6d6;stroke:#434343;stroke-width:3.165;stroke-linecap:round;stroke-linejoin:round;stroke-opacity:1;fill-opacity:1;stroke-dasharray:none"
       d="m 5.026094,259.99617 0.2910287,-0.23167 c 0.045496,-0.0256 0.089669,-0.0535 0.1322858,-0.0837 0.1714331,-0.12129 0.3156201,-0.27656 0.4762286,-0.41186 0.3383716,-0.28504 0.7433551,-0.47668 1.1244291,-0.70146 0.4398488,-0.25945 0.8506712,-0.56508 1.2831718,-0.8366 0.2972303,-0.1866 0.6044978,-0.35696 0.8995431,-0.547 0.3027916,-0.19503 0.5919498,-0.41027 0.8863149,-0.6178 0.565678,-0.3988 1.151469,-0.76961 1.7594,-1.10045 0.903005,-0.49141 1.851532,-0.89296 2.778001,-1.33856 0.802425,-0.38594 1.588648,-0.80511 2.394373,-1.18411 1.02075,-0.48015 2.071668,-0.89529 3.082258,-1.39647 0.990973,-0.49145 1.940307,-1.06422 2.936744,-1.54449 0.28273,-0.13627 0.569213,-0.26508 0.846629,-0.41187 0.214189,-0.11333 0.422618,-0.2372 0.634971,-0.35394 0.593914,-0.3265 1.216906,-0.59637 1.825543,-0.89452 0.685942,-0.33602 1.353711,-0.70799 2.0372,-1.04897 0.632131,-0.31536 1.277181,-0.60395 1.918144,-0.90095 0.869397,-0.40285 1.731713,-0.82138 2.579574,-1.26777 0.404324,-0.21287 0.805471,-0.43214 1.217028,-0.63067 0.367687,-0.17737 0.743263,-0.33798 1.1112,-0.51483 0.70614,-0.33941 1.382719,-0.73792 2.090115,-1.0747 0.486515,-0.23162 0.986935,-0.43372 1.468372,-0.67572 0.361867,-0.1819 0.712171,-0.38592 1.071515,-0.57275 0.722156,-0.37547 1.478397,-0.68029 2.222402,-1.01035 0.762155,-0.33811 1.512366,-0.70314 2.248857,-1.09401 0.174973,-0.0929 0.349302,-0.18725 0.529143,-0.27029 0.339321,-0.15668 0.695952,-0.27196 1.045057,-0.40543 0.586755,-0.22433 1.152387,-0.50015 1.732944,-0.74007 0.30802,-0.12729 0.623065,-0.24523 0.952457,-0.29602 0.155765,-0.024 0.315957,-0.0334 0.463,-0.0901 0.06456,-0.0249 0.125331,-0.0585 0.187709,-0.0885 0.06238,-0.03 0.127373,-0.0565 0.195921,-0.066 0.06997,-0.01 0.141192,-0.001 0.211656,-0.006 0.08972,-0.006 0.17635,-0.034 0.264573,-0.0515 0.247254,-0.049 0.502184,-0.0164 0.754028,-0.006 0.684281,0.0283 1.377539,-0.10822 2.050428,0.0193 0.428573,0.0812 0.82913,0.26624 1.230257,0.43761 0.421738,0.18018 0.849302,0.34692 1.283174,0.49552 0.609008,0.20858 1.232885,0.38239 1.812314,0.66285 0.694103,0.33597 1.306172,0.81595 1.9446,1.24846 0.374821,0.25392 0.760048,0.49226 1.150887,0.72076 0.525253,0.30709 1.060676,0.59645 1.587428,0.90096 0.357298,0.20655 0.711085,0.42038 1.04506,0.66284 0.233767,0.16971 0.458932,0.35413 0.71434,0.48909 0.278529,0.14718 0.585598,0.23158 0.873088,0.36038 0.262471,0.11759 0.506801,0.27134 0.754028,0.4183 0.548095,0.32581 1.114537,0.62042 1.693257,0.88808 0.754042,0.34875 1.528973,0.65185 2.275316,1.01679 0.450239,0.22015 0.889836,0.46269 1.349314,0.66285 0.246059,0.10719 0.49748,0.20207 0.740802,0.31533 0.434798,0.2024 0.840587,0.46201 1.269941,0.67571 0.281004,0.13986 0.57194,0.25998 0.84663,0.41187 0.39297,0.21729 0.748258,0.49714 1.137658,0.72076 0.280624,0.16116 0.57754,0.29229 0.859856,0.45047 0.202377,0.11339 0.396758,0.24039 0.595286,0.36039 0.662675,0.40055 1.371077,0.72276 2.023973,1.13906 0.690304,0.44015 1.318999,0.98549 2.063657,1.32569 0.452955,0.20693 0.942062,0.33447 1.375773,0.57918 0.246182,0.1389 0.470181,0.31321 0.701114,0.47621 0.418492,0.29539 0.862024,0.55503 1.322858,0.77869 0.716383,0.34769 1.471568,0.60734 2.209173,0.90739 0.614659,0.25004 1.218209,0.52867 1.799085,0.84946 0.600683,0.33173 1.175605,0.70766 1.759402,1.06828 0.40337,0.24917 0.812185,0.49168 1.243486,0.68858 0.170702,0.0779 0.344636,0.14858 0.515914,0.22524 0.5323,0.23824 1.039262,0.53459 1.587428,0.73363 0.25963,0.0943 0.530013,0.16745 0.767258,0.3089 0.111512,0.0665 0.213852,0.14704 0.317486,0.22524 0.184027,0.13887 0.373105,0.27099 0.555602,0.41186 0.06806,0.0525 0.135438,0.10645 0.209275,0.15051 0.07384,0.044 0.155023,0.0782 0.240495,0.0876 0.07136,0.008 0.143289,-0.002 0.214875,-0.007 0.07159,-0.005 0.145455,-0.006 0.212854,0.0187 0.0337,0.0124 0.06534,0.0311 0.09054,0.0567 0.0252,0.0256 0.04376,0.0581 0.05037,0.0934 0.0066,0.0353 7.94e-4,0.0732 -0.01827,0.1036 -0.01907,0.0304 -0.0517,0.0525 -0.08736,0.0566 -0.0092,0.001 -0.01852,9.4e-4 -0.02769,0.002 -0.0092,0.001 -0.01842,0.004 -0.02522,0.0106 -0.0041,0.004 -0.0072,0.009 -0.0093,0.014 -0.002,0.005 -0.0031,0.0109 -0.0036,0.0165 -0.001,0.0112 1.5e-4,0.0226 -3.46e-4,0.0338 -0.0011,0.0249 -0.01043,0.0491 -0.02399,0.07 -0.01356,0.021 -0.03122,0.039 -0.05003,0.0554 -0.03761,0.0328 -0.08067,0.0603 -0.111188,0.0998 -0.02255,0.0292 -0.03723,0.0638 -0.04773,0.0991 -0.0105,0.0353 -0.01704,0.0717 -0.02483,0.1078 -0.0078,0.036 -0.01693,0.0721 -0.0323,0.1056 -0.01537,0.0335 -0.03734,0.0647 -0.06712,0.0865 -0.02062,0.0151 -0.04436,0.0253 -0.06614,0.0386 -0.06977,0.0427 -0.115294,0.11475 -0.171971,0.17376 -0.09689,0.10087 -0.225876,0.16313 -0.343943,0.23811 -0.258107,0.16392 -0.467858,0.39195 -0.678256,0.61381 -0.210399,0.22186 -0.428914,0.44351 -0.697516,0.5896 -0.225492,0.12264 -0.477404,0.18707 -0.72757,0.24455 -0.367466,0.0844 -0.738479,0.1566 -1.097973,0.27028 -0.227398,0.0719 -0.449261,0.16016 -0.674659,0.23811 -0.322791,0.11164 -0.652457,0.20205 -0.978913,0.30246 -0.970764,0.2986 -1.912723,0.68563 -2.830915,1.11976 -0.363515,0.17187 -0.723462,0.35117 -1.084744,0.52769 -0.639934,0.31267 -1.2841,0.61664 -1.931371,0.91382 -0.832023,0.382 -1.672376,0.75448 -2.447287,1.24203 -0.282266,0.17759 -0.554951,0.36991 -0.833401,0.55343 -0.402893,0.26553 -0.817925,0.51266 -1.243486,0.7401 -0.328605,0.17562 -0.663395,0.33946 -0.992142,0.51482 -0.292498,0.15602 -0.580104,0.3211 -0.873088,0.4762 -0.559926,0.29642 -1.13851,0.55592 -1.706486,0.83661 -0.754429,0.37284 -1.489799,0.78289 -2.222399,1.19698 -0.600299,0.33931 -1.199857,0.6819 -1.825543,0.97173 -0.409355,0.18962 -0.828917,0.35621 -1.243486,0.53414 -0.751888,0.32271 -1.487435,0.68283 -2.209173,1.06828 -1.05468,0.56326 -2.080326,1.1808 -3.148402,1.71823 -0.852808,0.42911 -1.730705,0.80616 -2.5928,1.21629 -0.957342,0.45545 -1.895067,0.95164 -2.857373,1.3965 -1.359484,0.62847 -2.76441,1.15285 -4.140544,1.74398 -1.165012,0.50044 -2.314878,1.05188 -3.36006,1.76971 -0.275948,0.18952 -0.544583,0.39062 -0.833398,0.55989 -0.159923,0.0937 -0.325496,0.17737 -0.489458,0.26384 -0.360445,0.19009 -0.713556,0.39408 -1.058285,0.61137 -0.03016,-0.0372 -0.06597,-0.0699 -0.105831,-0.0965 -0.07355,-0.0491 -0.159237,-0.0767 -0.245117,-0.0978 -0.08588,-0.0211 -0.173351,-0.0362 -0.257567,-0.0631 -0.25669,-0.0821 -0.46477,-0.26712 -0.687885,-0.41831 -0.280339,-0.18996 -0.591012,-0.32976 -0.886315,-0.49551 -0.573108,-0.32167 -1.089288,-0.74167 -1.68003,-1.02968 -0.232478,-0.11334 -0.474645,-0.20529 -0.714343,-0.30244 -0.613162,-0.24851 -1.211873,-0.53181 -1.799087,-0.83661 -0.462995,-0.24032 -0.919138,-0.49414 -1.388999,-0.72075 -1.050726,-0.50675 -2.168761,-0.87687 -3.17486,-1.46728 -0.337008,-0.19777 -0.659514,-0.41918 -0.992143,-0.62423 -0.498268,-0.30715 -1.01995,-0.57804 -1.494829,-0.92025 -0.255415,-0.18406 -0.495914,-0.38778 -0.740799,-0.58563 -0.452602,-0.36567 -0.923691,-0.71357 -1.441916,-0.97816 -0.196541,-0.10035 -0.399204,-0.18837 -0.595286,-0.28961 -0.23618,-0.12194 -0.462369,-0.26284 -0.701114,-0.37968 -0.666342,-0.32611 -1.410385,-0.45587 -2.103345,-0.72075 -0.329246,-0.12585 -0.646411,-0.28207 -0.952455,-0.45694 -0.17039,-0.0974 -0.337819,-0.20073 -0.515916,-0.28315 -0.177685,-0.0822 -0.364692,-0.14298 -0.542372,-0.22522 -0.221984,-0.10275 -0.427086,-0.23791 -0.634971,-0.36682 -0.720283,-0.44665 -1.48375,-0.82333 -2.275315,-1.12619 -0.365831,-0.13997 -0.737827,-0.2643 -1.097972,-0.41831 -0.359885,-0.1539 -0.706487,-0.33682 -1.058286,-0.5084 -0.429426,-0.20944 -0.866867,-0.40212 -1.2964,-0.61134 -0.427208,-0.20809 -0.847138,-0.4329 -1.243486,-0.69504 -0.34873,-0.23065 -0.678267,-0.4896 -0.992143,-0.76581 -0.133546,-0.11752 -0.264723,-0.23853 -0.410086,-0.34107 -0.255907,-0.18052 -0.549433,-0.2995 -0.820172,-0.45691 -0.2045,-0.1189 -0.395513,-0.25945 -0.595286,-0.38613 -0.990879,-0.62834 -2.16317,-0.89683 -3.227773,-1.39005 -0.281173,-0.13027 -0.554778,-0.27622 -0.8334,-0.41185 -0.457771,-0.22285 -0.929374,-0.418 -1.375772,-0.66283 -0.38057,-0.20873 -0.741159,-0.45268 -1.124429,-0.65641 -0.38651,-0.20545 -0.793717,-0.36876 -1.190571,-0.55344 -0.5379776,-0.25036 -1.0566734,-0.53989 -1.5742012,-0.83017 -0.5065106,-0.2841 -1.01369,-0.56982 -1.5477431,-0.79798 -0.1716241,-0.0733 -0.347202,-0.14133 -0.5026861,-0.24455 -0.1745951,-0.11591 -0.3177783,-0.27215 -0.4723981,-0.41362 -0.1546199,-0.14146 -0.3288662,-0.27248 -0.5329736,-0.32001 -0.03071,-0.007 -0.061846,-0.0123 -0.0926,-0.0193 -0.1147585,-0.026 -0.2238212,-0.0768 -0.317486,-0.14801 z"
       id="path3"
       inkscape:path-effect="#path-effect3"
       inkscape:original-d="m 5.026094,259.99617 c 0.09701,-0.0772 0.1940192,-0.15444 0.2910287,-0.23167 0.044095,-0.0279 0.090397,-0.0525 0.1322858,-0.0837 0.1695046,-0.12586 0.2997513,-0.29167 0.4762286,-0.41186 0.3660291,-0.24929 0.7484893,-0.46812 1.1244291,-0.70146 0.4336601,-0.26916 0.8474446,-0.57027 1.2831718,-0.8366 0.2997702,-0.18322 0.6049745,-0.35498 0.8995431,-0.547 0.3033726,-0.19776 0.5907415,-0.40968 0.8863149,-0.6178 0.561887,-0.39563 1.170164,-0.74865 1.7594,-1.10045 0.881081,-0.52604 1.853757,-0.89775 2.778001,-1.33856 0.803457,-0.3832 1.583858,-0.81654 2.394373,-1.18411 1.027374,-0.46591 2.062488,-0.91397 3.082258,-1.39647 0.999786,-0.47305 1.968086,-1.01285 2.936744,-1.54449 0.275484,-0.1512 0.567724,-0.26734 0.846629,-0.41187 0.215147,-0.11149 0.421319,-0.23961 0.634971,-0.35394 0.596613,-0.31927 1.218991,-0.59484 1.825543,-0.89452 0.684949,-0.33842 1.350194,-0.71476 2.0372,-1.04897 0.635209,-0.30901 1.285759,-0.58676 1.918144,-0.90095 0.858465,-0.42651 1.72062,-0.84258 2.579574,-1.26777 0.409451,-0.20268 0.806371,-0.43089 1.217028,-0.63067 0.367033,-0.17855 0.745154,-0.33351 1.1112,-0.51483 0.701638,-0.34753 1.386464,-0.73239 2.090115,-1.0747 0.484138,-0.23553 0.985653,-0.43589 1.468372,-0.67572 0.363267,-0.18048 0.704567,-0.39839 1.071515,-0.57275 0.735255,-0.34936 1.493504,-0.64667 2.222402,-1.01035 0.746154,-0.37229 1.499123,-0.72929 2.248857,-1.09401 0.177737,-0.0865 0.347329,-0.19225 0.529143,-0.27029 0.344038,-0.14767 0.702855,-0.25227 1.045057,-0.40543 0.574979,-0.25733 1.139364,-0.5235 1.732944,-0.74007 0.309943,-0.11308 0.636833,-0.20006 0.952457,-0.29602 0.151853,-0.0462 0.314003,-0.0418 0.463,-0.0901 0.13063,-0.0424 0.248981,-0.12716 0.38363,-0.15445 0.07031,-0.0143 0.141502,0.002 0.211656,-0.006 0.08841,-0.0107 0.17462,-0.0471 0.264573,-0.0515 0.250949,-0.0122 0.50283,0.008 0.754028,-0.006 0.684662,-0.04 1.369891,-0.10803 2.050428,0.0193 0.42821,0.0801 0.826437,0.28387 1.230257,0.43761 0.429427,0.16349 0.856721,0.32383 1.283174,0.49552 0.59573,0.23985 1.233045,0.38105 1.812314,0.66285 0.697251,0.33919 1.296066,0.83201 1.9446,1.24846 0.380743,0.2445 0.760007,0.49258 1.150887,0.72076 0.525743,0.30692 1.067395,0.58473 1.587428,0.90096 0.35182,0.21394 0.708266,0.42618 1.04506,0.66284 0.238381,0.16751 0.456961,0.34823 0.71434,0.48909 0.279847,0.15315 0.584295,0.23327 0.873088,0.36038 0.262348,0.11547 0.501206,0.28446 0.754028,0.4183 0.562033,0.29754 1.121543,0.60996 1.693257,0.88808 0.743344,0.36162 1.518145,0.68528 2.275316,1.01679 0.461058,0.20186 0.893667,0.45149 1.349314,0.66285 0.243909,0.11313 0.500692,0.19268 0.740802,0.31533 0.426905,0.21806 0.839949,0.46292 1.269941,0.67571 0.281276,0.13919 0.568638,0.26623 0.84663,0.41187 0.396274,0.2076 0.749837,0.4964 1.137658,0.72076 0.280271,0.16214 0.578694,0.28991 0.859856,0.45047 0.322297,0.18406 0.30811,0.18925 0.595286,0.36039 0.664086,0.39575 1.385737,0.69983 2.023973,1.13906 0.694221,0.47775 1.290412,0.96898 2.063657,1.32569 0.451445,0.20825 0.938292,0.33975 1.375773,0.57918 0.246218,0.13475 0.466288,0.32259 0.701114,0.47621 0.423897,0.27733 0.8696,0.5536 1.322858,0.77869 0.713759,0.35446 1.478471,0.59231 2.209173,0.90739 0.606925,0.2617 1.210442,0.54842 1.799085,0.84946 0.610126,0.31203 1.154692,0.74608 1.759402,1.06828 0.417822,0.22262 0.821605,0.47545 1.243486,0.68858 0.168421,0.0851 0.346186,0.14497 0.515914,0.22524 0.527203,0.24935 1.053372,0.49745 1.587428,0.73363 0.09998,0.0442 0.718323,0.26129 0.767258,0.3089 0.09979,0.0971 0.205012,0.14198 0.317486,0.22524 0.185629,0.13742 0.354084,0.29601 0.555602,0.41186 0.147724,0.0849 0.304339,0.14874 0.44977,0.23811 0.04691,0.0288 0.463,0.31493 0.463,0.32177 0,0.0122 -0.04587,0.009 -0.05291,0.0129 -0.01968,0.01 -0.0019,0.0456 -0.01323,0.0643 -0.05079,0.084 -0.127307,0.14779 -0.185201,0.22524 -0.08629,0.11544 -0.07532,0.28733 -0.171971,0.39899 -0.01669,0.0193 -0.04578,0.0232 -0.06614,0.0386 -0.065,0.0492 -0.108048,0.12287 -0.171971,0.17376 -0.108837,0.0866 -0.237641,0.14693 -0.343943,0.23811 -0.468842,0.40214 -0.843198,0.87956 -1.375772,1.20341 -0.279506,0.16997 -0.421601,0.17508 -0.72757,0.24455 -0.36571,0.083 -0.738026,0.1671 -1.097973,0.27028 -0.229249,0.0657 -0.448363,0.1638 -0.674659,0.23811 -0.323863,0.10635 -0.659254,0.18379 -0.978913,0.30246 -0.948023,0.35196 -1.903103,0.71855 -2.830915,1.11976 -0.370043,0.16001 -0.721106,0.35463 -1.084744,0.52769 -0.643522,0.30626 -1.290158,0.6019 -1.931371,0.91382 -0.822227,0.4 -1.661789,0.76893 -2.447287,1.24203 -0.284401,0.17129 -0.555636,0.37119 -0.833401,0.55343 -0.40278,0.26432 -0.822227,0.50655 -1.243486,0.7401 -0.326154,0.18078 -0.660897,0.34419 -0.992142,0.51482 -0.295653,0.15227 -0.574979,0.32912 -0.873088,0.4762 -0.567936,0.28025 -1.148355,0.53673 -1.706486,0.83661 -0.741288,0.3983 -1.479632,0.80164 -2.222399,1.19698 -0.605441,0.32226 -1.203378,0.6805 -1.825543,0.97173 -0.408654,0.19132 -0.832922,0.34716 -1.243486,0.53414 -0.745419,0.33949 -1.479325,0.69591 -2.209173,1.06828 -1.064623,0.54317 -2.07839,1.18436 -3.148402,1.71823 -0.853969,0.42612 -1.734589,0.79881 -2.5928,1.21629 -0.952285,0.46326 -1.893779,0.95703 -2.857373,1.3965 -1.363199,0.62169 -2.78385,1.10797 -4.140544,1.74398 -1.147789,0.53805 -2.281327,1.10064 -3.36006,1.76971 -0.284755,0.17664 -0.543139,0.39045 -0.833398,0.55989 -0.159617,0.0932 -0.336531,0.1597 -0.489458,0.26384 -0.184634,0.12576 -0.839594,0.63796 -1.058285,0.61137 -0.01011,0 -0.07866,-0.0845 -0.105831,-0.0965 -0.167336,-0.074 -0.33682,-0.0937 -0.502684,-0.16089 -0.24973,-0.10126 -0.456743,-0.28337 -0.687885,-0.41831 -0.292394,-0.17068 -0.597345,-0.3171 -0.886315,-0.49551 -0.557043,-0.34396 -1.09656,-0.73088 -1.68003,-1.02968 -0.229126,-0.11731 -0.479187,-0.19846 -0.714343,-0.30244 -0.602544,-0.26649 -1.206574,-0.54838 -1.799087,-0.83661 -0.471364,-0.22929 -0.906241,-0.51261 -1.388999,-0.72075 -1.07065,-0.46168 -2.153709,-0.89954 -3.17486,-1.46728 -0.341495,-0.18986 -0.660461,-0.4177 -0.992143,-0.62423 -0.496437,-0.30911 -1.018812,-0.57899 -1.494829,-0.92025 -0.256366,-0.1838 -0.489342,-0.39603 -0.740799,-0.58563 -0.459341,-0.34636 -0.952794,-0.67458 -1.441916,-0.97816 -0.188846,-0.11724 -0.396354,-0.19283 -0.595286,-0.28961 -0.238855,-0.11618 -0.453041,-0.28094 -0.701114,-0.37968 -0.688843,-0.27419 -1.430494,-0.40555 -2.103345,-0.72075 -0.316841,-0.14843 -0.64331,-0.29287 -0.952455,-0.45694 -0.174011,-0.0923 -0.336971,-0.19899 -0.515916,-0.28315 -0.175898,-0.0827 -0.369271,-0.1383 -0.542372,-0.22522 -0.217059,-0.10901 -0.421214,-0.25085 -0.634971,-0.36682 -0.743244,-0.4033 -1.515857,-0.75673 -2.275315,-1.12619 -0.353993,-0.17222 -0.732952,-0.27626 -1.097972,-0.41831 -0.365101,-0.14208 -0.706831,-0.33742 -1.058286,-0.5084 -0.429744,-0.20905 -0.869215,-0.39637 -1.2964,-0.61134 -0.418761,-0.21074 -0.863749,-0.41794 -1.243486,-0.69504 -0.334619,-0.24416 -0.671405,-0.50366 -0.992143,-0.76581 -0.135149,-0.11044 -0.267623,-0.24127 -0.410086,-0.34107 -0.258208,-0.18087 -0.54769,-0.30226 -0.820172,-0.45691 -0.204191,-0.11589 -0.386823,-0.27747 -0.595286,-0.38613 -1.041612,-0.5429 -2.146946,-0.93343 -3.227773,-1.39005 -0.28588,-0.12075 -0.553013,-0.27985 -0.8334,-0.41185 -0.460096,-0.21659 -0.920751,-0.4341 -1.375772,-0.66283 -0.388344,-0.19522 -0.735286,-0.46057 -1.124429,-0.65641 -0.390798,-0.19667 -0.794842,-0.36714 -1.190571,-0.55344 -0.5371454,-0.25288 -1.051438,-0.55164 -1.5742012,-0.83017 -0.5128119,-0.27323 -1.0420141,-0.50978 -1.5477431,-0.79798 -0.162297,-0.0925 -0.3404373,-0.15246 -0.5026861,-0.24455 -0.3525555,-0.20009 -0.6834563,-0.47262 -1.0053717,-0.73363 -0.018801,-0.0152 -0.0712,-0.0115 -0.0926,-0.0193 -0.095186,-0.0347 -0.2496929,-0.11869 -0.317486,-0.14801 z" />
  </g>
</svg>
